<svg width="78" height="77" viewBox="0 0 78 77" fill="none" xmlns="http://www.w3.org/2000/svg">
<circle cx="38.9625" cy="38.3484" r="38.3226" fill="#003153"/>
<path d="M31.5454 25.3682H34.0178C34.3596 25.3682 34.6359 25.0919 34.6359 24.7501V22.2777C34.6359 21.9358 34.3596 21.6595 34.0178 21.6595H31.5454C31.2035 21.6595 30.9272 21.9358 30.9272 22.2777V24.7501C30.9272 25.0919 31.2035 25.3682 31.5454 25.3682ZM32.1635 22.8958H33.3997V24.132H32.1635V22.8958Z" fill="white"/>
<path d="M34.0178 30.313C34.3596 30.313 34.6359 30.0367 34.6359 29.6949V27.2225C34.6359 26.8807 34.3596 26.6044 34.0178 26.6044H31.5454C31.2035 26.6044 30.9272 26.8807 30.9272 27.2225V29.6949C30.9272 30.0367 31.2035 30.313 31.5454 30.313H34.0178ZM32.1635 27.8406H33.3997V29.0768H32.1635V27.8406Z" fill="white"/>
<path d="M35.8721 21.6595H46.998V22.8958H35.8721V21.6595Z" fill="white"/>
<path d="M35.8721 24.132H46.998V25.3682H35.8721V24.132Z" fill="white"/>
<path d="M35.8721 26.6044H46.998V27.8406H35.8721V26.6044Z" fill="white"/>
<path d="M35.8721 29.0768H46.998V30.3131H35.8721V29.0768Z" fill="white"/>
<path d="M53.4238 45.6698C55.1199 44.7161 56.2695 42.9013 56.2695 40.8208C56.2695 37.7531 53.7742 35.2578 50.7066 35.2578C50.2813 35.2578 49.8684 35.3104 49.4704 35.4012V19.8052C49.4704 19.4634 49.1941 19.1871 48.8523 19.1871H29.0729C28.731 19.1871 28.4548 19.4634 28.4548 19.8052V35.4012C28.0567 35.3104 27.6438 35.2578 27.2185 35.2578C24.1509 35.2578 21.6556 37.7531 21.6556 40.8208C21.6556 42.9013 22.8053 44.7161 24.5013 45.6698C21.7526 46.7571 19.8013 49.4347 19.8013 52.5648V56.8916C19.8013 57.2334 20.0776 57.5097 20.4194 57.5097H34.0177C34.3595 57.5097 34.6358 57.2334 34.6358 56.8916V53.801H43.2893V56.8916C43.2893 57.2334 43.5656 57.5097 43.9074 57.5097H57.5057C57.8476 57.5097 58.1239 57.2334 58.1239 56.8916V52.5648C58.1239 49.4347 56.1725 46.7571 53.4238 45.6698ZM50.7066 45.1475C48.5308 45.1475 46.7297 43.5306 46.4287 41.4364C48.1112 41.4241 49.7559 40.7528 50.9637 39.5821C51.4409 40.6743 52.5312 41.4389 53.7971 41.4389H54.9839C54.6822 43.5318 52.8817 45.1475 50.7066 45.1475ZM54.9839 40.2027H53.7971C52.7748 40.2027 51.9428 39.3707 51.9428 38.3484C51.9428 38.0986 51.7926 37.8724 51.5614 37.7772C51.3302 37.6808 51.0645 37.7346 50.8877 37.9114L50.1614 38.6376C49.178 39.621 47.8194 40.1878 46.4293 40.2002C46.7322 38.1085 48.5321 36.494 50.7066 36.494C52.8817 36.494 54.6822 38.1098 54.9839 40.2027ZM29.691 20.4233H48.2342V35.845C46.4058 36.7574 45.1436 38.6426 45.1436 40.8208C45.1436 42.9032 46.2958 44.7198 47.9943 45.6729C47.3058 45.9443 46.6611 46.317 46.0794 46.7812C45.4354 44.577 43.7962 42.7981 41.6804 41.9612C43.3758 41.0075 44.5255 39.1927 44.5255 37.1122C44.5255 34.0445 42.0302 31.5492 38.9626 31.5492C35.8949 31.5492 33.3996 34.0445 33.3996 37.1122C33.3996 39.1927 34.5493 41.0075 36.2454 41.9612C34.1296 42.7981 32.4898 44.577 31.8463 46.7818C31.2647 46.317 30.6194 45.9443 29.9314 45.6729C31.6293 44.7198 32.7815 42.9032 32.7815 40.8208C32.7815 38.642 31.5193 36.7574 29.691 35.845V20.4233ZM39.2197 35.8735C39.6969 36.9657 40.7872 37.7303 42.0531 37.7303H43.2399C42.9382 39.8232 41.1377 41.4389 38.9626 41.4389C36.7868 41.4389 34.9857 39.8219 34.6846 37.7278C36.3671 37.716 38.0119 37.0442 39.2197 35.8735ZM34.6859 36.4916C34.9881 34.3999 36.7881 32.7854 38.9626 32.7854C41.1377 32.7854 42.9382 34.4011 43.2399 36.494H42.0531C41.0307 36.494 40.1988 35.6621 40.1988 34.6397C40.1988 34.39 40.0486 34.1638 39.8174 34.0686C39.5862 33.9728 39.3204 34.0259 39.1437 34.2027L38.4174 34.929C37.434 35.9124 36.076 36.4792 34.6859 36.4916ZM45.1436 50.0924H32.7815V48.8562C32.7815 45.4479 35.5543 42.6751 38.9626 42.6751C42.3708 42.6751 45.1436 45.4479 45.1436 48.8562V50.0924ZM32.7815 51.3286H45.1436V52.5648H32.7815V51.3286ZM27.2185 36.494C29.3937 36.494 31.1942 38.1098 31.4958 40.2027H30.3091C29.2867 40.2027 28.4548 39.3707 28.4548 38.3484C28.4548 38.0986 28.3046 37.8724 28.0734 37.7772C27.8422 37.6808 27.577 37.7346 27.3996 37.9114L26.6734 38.6376C25.69 39.621 24.3314 40.1878 22.9412 40.2002C23.2441 38.1085 25.044 36.494 27.2185 36.494ZM22.9406 41.4364C24.6231 41.4241 26.2679 40.7528 27.4757 39.5821C27.9529 40.6743 29.0432 41.4389 30.3091 41.4389H31.4958C31.1942 43.5318 29.3937 45.1475 27.2185 45.1475C25.0428 45.1475 23.2416 43.5306 22.9406 41.4364ZM33.3996 56.2734H21.0375V52.5648C21.0375 49.1566 23.8103 46.3837 27.2185 46.3837C28.8541 46.3837 30.4247 47.0451 31.5787 48.196C31.5595 48.4136 31.5453 48.633 31.5453 48.8562V53.1829C31.5453 53.5247 31.8216 53.801 32.1634 53.801H33.3996V56.2734ZM56.8876 56.2734H44.5255V53.801H45.7617C46.1035 53.801 46.3798 53.5247 46.3798 53.1829V48.8562C46.3798 48.633 46.3656 48.4136 46.3465 48.1954C47.5011 47.0451 49.0717 46.3837 50.7066 46.3837C54.1148 46.3837 56.8876 49.1566 56.8876 52.5648V56.2734Z" fill="white"/>
</svg>
