<svg width="77" height="77" viewBox="0 0 77 77" fill="none" xmlns="http://www.w3.org/2000/svg">
<circle cx="38.369" cy="38.3484" r="38.3226" fill="#003153"/>
<path d="M50.3356 52.642L48.9013 48.3387C48.4001 46.8363 47.1214 45.7274 45.5627 45.4436L41.4223 44.6903V44.3693C42.1428 43.9512 42.7698 43.3917 43.2691 42.7294H44.52C45.5447 42.7294 46.3786 41.8955 46.3786 40.8708V33.4364C46.3786 28.9956 42.7655 25.3824 38.3246 25.3824C33.8838 25.3824 30.2707 28.9956 30.2707 33.4364V37.7731C30.2707 38.9676 31.1201 39.9669 32.2464 40.1999C32.5939 41.9804 33.7066 43.4871 35.2269 44.3693V44.6903L31.086 45.4436C29.5278 45.7274 28.2485 46.8363 27.7479 48.3387L27.5001 49.0828L25.39 46.9726C25.1484 46.731 25.1484 46.3376 25.39 46.096L27.8371 43.6494L23.2439 39.0562L20.4783 41.8218C19.6593 42.6408 19.2083 43.73 19.2083 44.8885C19.2083 46.047 19.6593 47.1356 20.4783 47.9546L28.8513 56.3276C29.6703 57.1466 30.7595 57.5983 31.918 57.5983C33.0765 57.5983 34.1651 57.1466 34.9649 56.3462L37.9826 53.5812L37.0416 52.642H50.3356ZM45.1395 40.8708C45.1395 41.2128 44.8613 41.4904 44.52 41.4904H43.999C44.1786 41.0808 44.3149 40.649 44.4029 40.1999C44.668 40.1447 44.9121 40.0394 45.1395 39.9068V40.8708ZM44.52 38.84V36.7063C44.8886 36.9213 45.1395 37.3166 45.1395 37.7731C45.1395 38.2297 44.8886 38.625 44.52 38.84ZM32.1293 38.84C31.7607 38.625 31.5097 38.2297 31.5097 37.7731C31.5097 37.3166 31.7607 36.9213 32.1293 36.7063V38.84ZM32.1293 34.6755V35.383C31.9087 35.4406 31.7018 35.5273 31.5097 35.6395V33.4364C31.5097 29.6789 34.5671 26.6215 38.3246 26.6215C42.0821 26.6215 45.1395 29.6789 45.1395 33.4364V35.6395C44.9475 35.5273 44.7405 35.44 44.52 35.383V34.6755H43.9004C42.0685 34.6755 40.3462 33.9618 39.0501 32.6663L38.3246 31.9408L37.5992 32.6663C36.3031 33.9618 34.5808 34.6755 32.7488 34.6755H32.1293ZM33.3683 39.0122V35.891C35.2288 35.751 36.9635 34.9834 38.3246 33.6892C39.6857 34.9834 41.4204 35.7516 43.2809 35.891V39.0122C43.2809 39.9155 43.0343 40.7605 42.6106 41.4904H38.3246V42.7294H41.5921C40.7185 43.4983 39.5767 43.9685 38.3246 43.9685C35.5919 43.9685 33.3683 41.745 33.3683 39.0122ZM40.1832 44.922V44.9511L38.3246 46.8097L36.466 44.9511V44.922C37.0533 45.1066 37.6772 45.2076 38.3246 45.2076C38.972 45.2076 39.5959 45.1066 40.1832 44.922ZM28.9226 48.7302C29.28 47.6572 30.1938 46.8648 31.3072 46.6616L35.6377 45.8748L38.3246 48.5617L41.0109 45.8754L45.3409 46.6622C46.4542 46.8654 47.368 47.6572 47.7255 48.7309L48.617 51.4029H35.8025L33.3894 48.9898L30.7081 51.4153C30.4745 51.6501 30.0662 51.6501 29.832 51.4153L28.479 50.0622L28.9226 48.7302ZM23.2433 40.8082L26.0845 43.6494L25.4117 44.3223L22.5705 41.4811L23.2433 40.8082ZM34.1068 55.4528C33.522 56.0364 32.7439 56.3592 31.9168 56.3592C31.0897 56.3592 30.3116 56.0364 29.7261 55.4516L21.3531 47.0792C20.7682 46.4943 20.4461 45.7162 20.4461 44.8891C20.4461 44.0614 20.7682 43.2833 21.3531 42.6985L21.6938 42.3577L24.535 45.1989L24.5127 45.2212C23.7885 45.9461 23.7885 47.125 24.5127 47.8499L28.9554 52.2926C29.3067 52.6432 29.7732 52.8371 30.2701 52.8371C30.7669 52.8371 31.2334 52.6438 31.5618 52.3143L31.6082 52.2727L34.4624 55.1269L34.1068 55.4528ZM35.3769 54.2881L32.5289 51.4401L33.3473 50.7004L36.1903 53.5434L35.3769 54.2881Z" fill="white"/>
<path d="M55.6717 19.1871H46.9983C45.9735 19.1871 45.1396 20.021 45.1396 21.0457V26.002C45.1396 27.0267 45.9735 27.8606 46.9983 27.8606H48.653L48.0124 31.597L53.9909 27.8606H55.6717C56.6965 27.8606 57.5303 27.0267 57.5303 26.002V21.0457C57.5303 20.021 56.6965 19.1871 55.6717 19.1871ZM56.2913 26.002C56.2913 26.3433 56.0131 26.6215 55.6717 26.6215H53.6353L49.7007 29.0804L50.1226 26.6215H46.9983C46.6569 26.6215 46.3787 26.3433 46.3787 26.002V21.0457C46.3787 20.7043 46.6569 20.4261 46.9983 20.4261H55.6717C56.0131 20.4261 56.2913 20.7043 56.2913 21.0457V26.002Z" fill="white"/>
<path d="M55.0521 21.6652H47.6177V22.9043H55.0521V21.6652Z" fill="white"/>
<path d="M52.574 24.1434H47.6177V25.3824H52.574V24.1434Z" fill="white"/>
<path d="M55.0523 24.1434H53.8132V25.3824H55.0523V24.1434Z" fill="white"/>
<path d="M38.3248 21.0457C30.2299 21.0457 23.257 26.6451 21.4443 34.4556L20.2703 32.4984L19.2078 33.1359L21.3854 36.7646L25.014 34.5869L24.3765 33.5244L22.6976 34.5318C24.4534 27.3867 30.8786 22.2848 38.3248 22.2848C39.9523 22.2848 41.5581 22.5264 43.0977 23.0034L43.4644 21.8201C41.8059 21.3059 40.0768 21.0457 38.3248 21.0457Z" fill="white"/>
<path d="M57.2291 32.9048L53.6005 30.7272L51.4234 34.3564L52.4859 34.9939L53.5701 33.1867C54.1407 34.8564 54.4325 36.6028 54.4325 38.3927C54.4325 42.0771 53.1563 45.679 50.8398 48.5345L51.802 49.3151C54.2975 46.2397 55.6716 42.3602 55.6716 38.3927C55.6716 36.4975 55.3662 34.647 54.7708 32.8751L56.5916 33.9673L57.2291 32.9048Z" fill="white"/>
</svg>
