<svg width="77" height="77" viewBox="0 0 77 77" fill="none" xmlns="http://www.w3.org/2000/svg">
<ellipse cx="38.3226" cy="38.1846" rx="38.3226" ry="38.1588" fill="#003153"/>
<path d="M24.8947 27.1095C23.7945 27.8423 22.5096 28.2299 21.1778 28.2299H19.8431C19.4669 28.2299 19.1613 28.5343 19.1613 28.9089C19.1613 29.2835 19.4669 29.5878 19.8431 29.5878H21.1773C22.78 29.5878 24.3274 29.1212 25.6462 28.242C25.8498 28.1096 26.0664 28.0056 26.2874 27.9155C25.6549 29.3904 25.2965 31.005 25.2458 32.6956C25.1249 32.7379 25.0069 32.7967 24.901 32.8843L22.1494 35.2601C21.8491 35.5279 21.658 35.8933 21.6092 36.2988L21.0008 42.0486L19.1975 47.3468C19.0766 47.7017 19.2677 48.0874 19.6245 48.2078C19.9814 48.3281 20.3678 48.1379 20.4887 47.7826L22.3172 42.4127L22.9642 36.4505C22.9729 36.3811 23.0058 36.319 23.0512 36.2781L25.5644 34.1084L26.874 35.6131C27.2048 35.9974 27.7643 36.0884 28.1971 35.8341L30.9298 34.2721L31.2219 34.4772L25.7163 40.6286L24.3429 55.7912C24.3091 56.1649 24.5857 56.4947 24.9609 56.5284C24.9817 56.5304 25.0025 56.5313 25.0233 56.5313C25.3725 56.5313 25.6699 56.266 25.7018 55.9135L27.0346 41.1973L27.5762 40.592C30.0396 44.1408 34.1462 46.3115 38.5052 46.3115C42.9436 46.3115 47.0879 44.0855 49.5368 40.4456L50.2095 41.1973L51.5423 55.9135C51.5742 56.2665 51.8716 56.5313 52.2207 56.5313C52.241 56.5313 52.2618 56.5304 52.2831 56.5284C52.6584 56.4947 52.935 56.1649 52.9011 55.7912L51.5278 40.6286L46.0202 34.4772L46.3113 34.273L49.0378 35.8303C49.4773 36.0879 50.0369 35.9969 50.3662 35.616L51.6777 34.1088L54.1826 36.2718C54.2363 36.32 54.2697 36.3821 54.2774 36.4413L54.8926 42.2663L56.5208 47.0964C56.6417 47.4508 57.029 47.642 57.3854 47.5211C57.7423 47.4002 57.9334 47.015 57.812 46.6597L56.2408 42.0491L55.632 36.2892C55.5841 35.8933 55.3921 35.5279 55.0841 35.2534L52.3281 32.8737C52.1593 32.7355 51.9615 32.6753 51.7608 32.6532C51.7019 30.8658 51.2884 29.1694 50.5828 27.628H55.7785C56.1552 27.628 56.4603 27.3237 56.4603 26.9491C56.4603 26.5745 56.1552 26.2702 55.7785 26.2702H49.8584C47.5299 22.4411 43.3189 19.8683 38.5043 19.8683C33.6699 19.8683 29.4438 22.4623 27.1211 26.3178C26.3396 26.404 25.5765 26.666 24.8947 27.1095ZM32.2916 33.5666L31.5798 33.0673C31.2645 32.8323 30.8268 32.7957 30.4298 32.9941L30.3244 33.0548C30.3336 30.9486 31.1547 29.0351 32.4846 27.5919L35.4896 30.5836C34.9165 31.2659 34.5572 32.1327 34.5572 33.0904C34.5572 35.0256 35.9717 36.6286 37.8229 36.9527V41.1877C34.9354 40.9484 32.4033 39.2226 31.1412 36.6094L32.4739 35.1215C32.6693 34.9029 32.7641 34.6106 32.7331 34.3197C32.7017 34.0231 32.545 33.7515 32.2916 33.5666ZM38.5043 35.6632C37.0796 35.6632 35.9205 34.509 35.9205 33.0904C35.9205 31.6719 37.0796 30.5177 38.5043 30.5177C39.9294 30.5177 41.0881 31.6719 41.0881 33.0904C41.0881 34.509 39.9294 35.6632 38.5043 35.6632ZM41.0223 30.0877C40.3371 29.5166 39.4661 29.1588 38.5043 29.1588C37.7837 29.1588 37.1164 29.3663 36.5341 29.7034L33.4861 26.6684C34.874 25.5907 36.6125 24.9421 38.5043 24.9421C40.6335 24.9421 42.5698 25.7631 44.0268 27.095L41.0223 30.0877ZM38.5043 44.9541C34.4808 44.9541 30.7011 42.8903 28.5148 39.5423L30.1595 37.7053C31.8327 40.7042 35.0007 42.5956 38.5043 42.5956C42.0964 42.5956 45.2958 40.6397 46.9327 37.5382L48.5919 39.3916C46.424 42.8321 42.6061 44.9541 38.5043 44.9541ZM45.6788 33.0557L44.9403 33.5748C44.6985 33.752 44.5414 34.0236 44.5099 34.3188C44.4795 34.6096 44.5738 34.9019 44.7701 35.1215L45.9423 36.4312C44.7184 39.1494 42.1554 40.944 39.1861 41.1867V36.9522C41.0378 36.6286 42.4518 35.0252 42.4518 33.0899C42.4518 32.3725 42.2434 31.708 41.9049 31.1287L44.9534 28.0937C46.0062 29.4386 46.6459 31.1162 46.6793 32.9421C46.3389 32.8126 45.953 32.8506 45.6788 33.0557ZM38.5043 21.2262C45.0743 21.2262 50.4189 26.548 50.4189 33.0899C50.4189 33.2195 50.4155 33.3524 50.4107 33.4906L49.5044 34.5316L48.0164 33.6822C48.0295 33.4838 48.0503 33.2888 48.0503 33.0899C48.0503 30.6111 47.0846 28.3576 45.5173 26.6636C45.5032 26.6462 45.4568 26.5952 45.4462 26.5856C43.7043 24.7433 41.2404 23.5847 38.5043 23.5847C36.0148 23.5847 33.7521 24.5463 32.0513 26.1064C32.0329 26.1209 31.9807 26.1681 31.9715 26.1787C30.1218 27.9136 28.9587 30.3665 28.9587 33.0899C28.9587 33.3345 28.9737 33.5777 28.9945 33.8137L27.7377 34.5316L26.593 33.2161C26.5926 33.1737 26.5901 33.1313 26.5901 33.0899C26.5901 26.548 31.9352 21.2262 38.5043 21.2262Z" fill="white"/>
<path d="M49.487 23.9421H55.778C56.1547 23.9421 56.4599 23.6378 56.4599 23.2632C56.4599 22.8885 56.1547 22.5842 55.778 22.5842H49.487C49.1103 22.5842 48.8052 22.8885 48.8052 23.2632C48.8052 23.6378 49.1103 23.9421 49.487 23.9421Z" fill="white"/>
<path d="M19.8431 24.5444C19.4669 24.5444 19.1613 24.8487 19.1613 25.2234C19.1613 25.598 19.4669 25.9023 19.8431 25.9023H21.1773C22.779 25.9023 24.3264 25.4357 25.6462 24.5565C26.2202 24.1833 26.874 23.9738 27.537 23.9507C27.9132 23.9377 28.2072 23.6233 28.1947 23.2482C28.1811 22.8735 27.8658 22.5707 27.4891 22.5933C26.578 22.6246 25.6834 22.9101 24.8947 23.423C23.7935 24.1563 22.5082 24.5439 21.1773 24.5439H19.8431V24.5444Z" fill="white"/>
</svg>
