<svg width="77" height="77" viewBox="0 0 77 77" fill="none" xmlns="http://www.w3.org/2000/svg">
<circle cx="38.637" cy="38.3484" r="38.3226" fill="#003153"/>
<path d="M38.1449 33.9039L43.8933 27.5168C44.6013 26.7302 44.5375 25.5186 43.7509 24.8106C42.9642 24.1026 41.7526 24.1664 41.0447 24.953L36.6471 29.8391L36.1598 29.3512C35.4011 28.6281 34.2084 28.6281 33.4498 29.3512C33.0903 29.7105 32.8884 30.198 32.8884 30.7062C32.8884 31.2144 33.0903 31.7019 33.4498 32.0612L35.3659 33.9773C35.7376 34.349 36.2457 34.5515 36.7712 34.5377C37.2966 34.5238 37.7933 34.2946 38.1449 33.9039ZM36.269 33.0736L34.3529 31.1574C34.1869 30.9971 34.1203 30.7596 34.1787 30.5363C34.2372 30.313 34.4116 30.1386 34.6349 30.0801C34.8582 30.0217 35.0957 30.0883 35.256 30.2543L36.2205 31.2181C36.3444 31.342 36.5137 31.4095 36.6888 31.4049C36.8639 31.4003 37.0294 31.324 37.1466 31.1939L41.9938 25.8083C42.1463 25.6385 42.3779 25.563 42.6012 25.6102C42.8245 25.6574 43.0056 25.8202 43.0764 26.0372C43.1471 26.2542 43.0967 26.4924 42.9442 26.6622L37.1958 33.0493C37.0786 33.1797 36.9129 33.2561 36.7376 33.2607C36.5624 33.2653 36.3929 33.1976 36.269 33.0736Z" fill="white"/>
<path d="M55.882 33.8994H50.5501C49.7768 33.8993 49.0996 34.418 48.8984 35.1647H47.0813C50.1029 30.7342 49.1858 24.7216 44.9807 21.3934C40.7757 18.0652 34.7132 18.5536 31.0952 22.5122C27.4772 26.4707 27.5345 32.5525 31.2266 36.4421L28.3754 36.4383C28.1729 35.693 27.4959 35.176 26.7237 35.1768H21.3917C20.3335 35.1768 19.4756 36.0347 19.4756 37.0929V48.5897C19.4756 49.648 20.3335 50.5058 21.3917 50.5058H24.5584C25.3348 50.5049 26.0126 49.9799 26.2076 49.2284H27.3087L26.5876 51.1445C26.378 51.6983 26.3976 52.3127 26.642 52.8521C26.8863 53.3914 27.3354 53.8112 27.8899 54.0187C28.453 54.2271 29.0761 54.2009 29.6196 53.9459C29.6228 53.9536 29.624 53.9619 29.6272 53.9696C29.8741 54.513 30.328 54.9352 30.8879 55.142C31.4479 55.3488 32.0672 55.3232 32.6081 55.0707C32.8491 55.6215 33.3024 56.0516 33.8652 56.2633C34.4279 56.475 35.0523 56.4503 35.5966 56.1948C35.5998 56.2019 35.6005 56.2095 35.6036 56.2172C35.9758 57.0416 36.808 57.5605 37.712 57.5319C38.6161 57.5032 39.4138 56.9326 39.7329 56.0862L39.7712 55.9847L41.9428 57.0456C42.4768 57.3035 43.0917 57.3374 43.6508 57.1399C44.2099 56.9423 44.667 56.5297 44.9205 55.9936C45.1753 55.4503 45.2031 54.8279 44.9978 54.264L45.0201 54.2563C45.5824 54.0569 46.0415 53.641 46.2955 53.1012C46.5494 52.5614 46.5771 51.9424 46.3723 51.3821L46.3927 51.3745C46.9551 51.1751 47.4144 50.7593 47.6684 50.2195C47.9225 49.6797 47.9503 49.0607 47.7455 48.5003C48.0692 48.3857 48.3619 48.1977 48.6007 47.951H51.0662C51.2614 48.7023 51.9391 49.2272 52.7153 49.2284H55.882C56.9403 49.2284 57.7982 48.3705 57.7982 47.3123V35.8155C57.7982 34.7573 56.9403 33.8994 55.882 33.8994ZM29.6949 29.4284C29.6893 25.4752 32.2801 21.9874 36.0665 20.851C39.8529 19.7147 43.9361 21.1995 46.1082 24.5026C48.2802 27.8056 48.0256 32.1429 45.4819 35.1691L39.4991 35.1768C38.7697 35.1773 38.0741 35.485 37.583 36.0244L37.1934 36.4542L33.1127 36.4485C30.9488 34.7632 29.6868 32.1712 29.6949 29.4284ZM24.5584 49.2284H21.3917C21.039 49.2284 20.753 48.9425 20.753 48.5897V37.0929C20.753 36.7402 21.039 36.4542 21.3917 36.4542H26.7237C26.8522 36.4542 26.9741 36.5113 27.0565 36.6099C27.1389 36.7086 27.1732 36.8387 27.1503 36.9652L24.9857 48.872C24.9483 49.0786 24.7684 49.2287 24.5584 49.2284ZM28.3377 52.8231C28.1005 52.7345 27.9084 52.555 27.8041 52.3243C27.6998 52.0936 27.6918 51.8308 27.782 51.5942L28.6839 49.2022C28.8817 48.7297 29.4162 48.4964 29.8972 48.6726C30.3782 48.8488 30.6355 49.3723 30.4812 49.8607L29.5672 52.2668C29.3797 52.7584 28.8308 53.0067 28.3377 52.8231ZM31.3262 53.9446C31.089 53.856 30.8968 53.6766 30.792 53.4461C30.6873 53.2155 30.6786 52.9527 30.768 52.7158C30.8433 52.5171 31.9177 49.6685 31.8947 49.7349C32.0941 49.2607 32.6323 49.0287 33.114 49.2092C33.5957 49.3897 33.8489 49.9184 33.6875 50.4068L32.5615 53.3883C32.3723 53.8815 31.8209 54.1298 31.3262 53.9446ZM34.3147 55.0688C34.0775 54.9802 33.8853 54.8008 33.7806 54.5702C33.6758 54.3396 33.6672 54.0769 33.7565 53.8399L34.8832 50.8584C35.0817 50.3826 35.6212 50.1493 36.1039 50.3303C36.5866 50.5114 36.8394 51.042 36.676 51.531C36.5074 51.9781 35.4842 54.6849 35.55 54.5118C35.4601 54.7495 35.2794 54.9417 35.0477 55.0462C34.8161 55.1506 34.5524 55.1587 34.3147 55.0688ZM37.3026 56.1904C37.0653 56.1019 36.873 55.9225 36.7683 55.6918C36.6637 55.4612 36.6553 55.1983 36.745 54.9615L37.4208 53.1731C37.6249 52.7061 38.159 52.4807 38.636 52.6602C39.113 52.8396 39.366 53.3612 39.2117 53.8469L38.536 55.6353C38.3479 56.1285 37.7964 56.3766 37.3026 56.1904ZM47.8816 46.8013C47.649 47.269 47.0868 47.4671 46.6124 47.2484L44.8879 46.4245C44.5755 46.2992 44.2195 46.4378 44.0741 46.7414C43.9287 47.045 44.0439 47.4093 44.3374 47.5742L46.0619 48.3962L46.067 48.4006C46.5286 48.6364 46.7191 49.1965 46.4968 49.6648C46.2745 50.133 45.7201 50.3396 45.2456 50.1309L43.3933 49.2437C43.0803 49.1153 42.7215 49.2532 42.5751 49.5583C42.4287 49.8633 42.5455 50.2295 42.8415 50.3934L44.6938 51.2806C45.1524 51.518 45.3404 52.0762 45.1187 52.5427C44.897 53.0092 44.3455 53.216 43.8717 53.0102H43.8622L42.1134 52.1703C41.7997 52.0383 41.4376 52.1755 41.2901 52.4821C41.1426 52.7888 41.2614 53.1573 41.5603 53.32L43.3167 54.1631C43.7918 54.3954 43.9913 54.9669 43.7638 55.4443C43.6558 55.6714 43.4619 55.8461 43.2249 55.93C42.9879 56.0138 42.7272 56 42.5004 55.8914L40.2247 54.7852L40.4087 54.2979C40.6923 53.5602 40.5617 52.7272 40.0658 52.1118C39.5699 51.4964 38.7838 51.1916 38.0026 51.3119C38.0469 50.5296 37.6761 49.7818 37.0266 49.3435C36.3771 48.9051 35.5448 48.8411 34.8359 49.1748C34.8359 49.1671 34.8314 49.1588 34.8283 49.1511C34.5477 48.5298 33.998 48.071 33.3365 47.906C32.675 47.7411 31.9743 47.888 31.4348 48.3048C30.8251 47.3954 29.6472 47.0601 28.65 47.5122C28.416 47.6207 28.2025 47.769 28.019 47.9504H26.4516L28.3115 37.7195L36.0335 37.7316L32.999 41.0702C32.0892 42.0718 32.1228 43.6104 33.0753 44.5714C34.0279 45.5325 35.5661 45.5797 36.5758 44.6789L39.9143 41.6629L47.4319 45.5188C47.9093 45.7496 48.1103 46.3229 47.8816 46.8013ZM40.9267 40.7476L41.619 40.1223C41.8809 39.886 41.9017 39.4821 41.6653 39.2202C41.429 38.9582 41.0251 38.9375 40.7631 39.1738L35.7224 43.7253C35.2198 44.1755 34.4523 44.1523 33.9778 43.6725C33.5033 43.1927 33.4885 42.425 33.9443 41.9273L38.5296 36.8815C38.7789 36.6092 39.1312 36.4541 39.5004 36.4542C45.9514 36.4491 46.6501 36.4453 48.9623 36.4421L50.8222 46.6736H49.2254C49.3548 45.7231 48.8609 44.7966 47.9997 44.3742L40.9267 40.7476ZM56.5207 47.3123C56.5207 47.665 56.2348 47.951 55.882 47.951H52.7153C52.5056 47.9513 52.3257 47.8015 52.288 47.5952L50.1234 35.6878C50.1005 35.5613 50.1349 35.4312 50.2173 35.3325C50.2997 35.2339 50.4216 35.1768 50.5501 35.1768H55.882C56.2348 35.1768 56.5207 35.4628 56.5207 35.8155V47.3123Z" fill="white"/>
</svg>
