<svg width="25" height="23" viewBox="0 0 25 23" fill="none" xmlns="http://www.w3.org/2000/svg">
<path d="M15.4469 5.97458C14.6781 5.94235 14.4469 5.93666 12.5 5.93666C10.5531 5.93666 10.3229 5.94329 9.55417 5.97458C7.57604 6.05706 6.65521 6.90935 6.56458 8.69547C6.53021 9.39512 6.52187 9.60464 6.52187 11.3765C6.52187 13.1484 6.53021 13.358 6.56458 14.0586C6.65521 15.8399 7.57187 16.697 9.55417 16.7794C10.3219 16.8107 10.5531 16.8183 12.5 16.8183C14.4479 16.8183 14.6781 16.8117 15.4469 16.7794C17.425 16.6979 18.3448 15.8428 18.4365 14.0586C18.4708 13.3589 18.4781 13.1484 18.4781 11.3765C18.4781 9.60464 18.4708 9.39512 18.4365 8.69547C18.3448 6.9103 17.4229 6.05706 15.4469 5.97458ZM12.5 14.7848C10.4323 14.7848 8.75521 13.2594 8.75521 11.3765C8.75521 9.49467 10.4323 7.96926 12.5 7.96926C14.5677 7.96926 16.2448 9.49467 16.2448 11.3765C16.2448 13.2584 14.5677 14.7848 12.5 14.7848ZM16.3927 8.631C15.9094 8.631 15.5177 8.27454 15.5177 7.83464C15.5177 7.39475 15.9094 7.03828 16.3927 7.03828C16.876 7.03828 17.2677 7.39475 17.2677 7.83464C17.2677 8.27359 16.876 8.631 16.3927 8.631ZM14.9302 11.3765C14.9302 12.5986 13.8417 13.5883 12.5 13.5883C11.1583 13.5883 10.0698 12.5986 10.0698 11.3765C10.0698 10.1545 11.1583 9.16475 12.5 9.16475C13.8417 9.16475 14.9302 10.1545 14.9302 11.3765ZM12.5 0C5.59687 0 0 5.09384 0 11.3765C0 17.6592 5.59687 22.7531 12.5 22.7531C19.4031 22.7531 25 17.6592 25 11.3765C25 5.09384 19.4031 0 12.5 0ZM19.7479 14.1126C19.6281 16.5254 18.1521 17.8621 15.5073 17.973C14.7292 18.0053 14.4802 18.0129 12.5 18.0129C10.5198 18.0129 10.2719 18.0053 9.49375 17.973C6.84375 17.8621 5.37396 16.5235 5.25208 14.1126C5.21667 13.4054 5.20833 13.1788 5.20833 11.3765C5.20833 9.5743 5.21667 9.34867 5.25208 8.64048C5.37396 6.22865 6.84479 4.89096 9.49375 4.78099C10.2719 4.74781 10.5198 4.74022 12.5 4.74022C14.4802 4.74022 14.7292 4.74781 15.5073 4.78099C18.1583 4.89191 19.6292 6.2334 19.7479 8.64048C19.7833 9.34867 19.7917 9.5743 19.7917 11.3765C19.7917 13.1788 19.7833 13.4054 19.7479 14.1126Z" fill="white"/>
</svg>
