<svg width="435" height="445" viewBox="0 0 435 445" fill="none" xmlns="http://www.w3.org/2000/svg">
<path d="M4.44188 148.009C4.25637 150.42 5.36941 152.182 6.66795 154.038C7.59548 155.429 8.70852 157.006 8.89403 158.582C9.17229 161.18 10.5636 161.829 12.6969 162.293C15.1085 162.849 17.0563 164.148 17.7056 166.745C18.3548 169.156 19.6534 169.806 22.065 168.878C26.7954 167.116 31.5258 165.168 36.2562 163.313C36.1634 163.869 35.9779 164.704 35.8852 165.539C35.5142 168.878 34.9577 172.217 35.0504 175.463C35.1432 178.895 37.2765 181.029 40.4301 181.029C46.5518 181.029 52.5807 180.936 58.7025 180.75C61.6706 180.658 64.2677 179.545 66.3082 177.226C66.5865 176.948 66.9575 176.484 67.2357 176.577C70.8531 177.226 72.8009 174.721 75.027 172.588C77.5313 170.177 80.4067 168.507 84.1168 168.6C86.4356 168.693 88.8472 167.95 91.5371 167.579C91.5371 167.579 91.9081 168.043 92.1863 168.6C93.4849 170.64 94.0414 172.495 92.4646 174.814C91.7226 176.02 92.0936 177.968 92.0008 179.637C91.9081 180.843 92.1863 182.234 91.8153 183.348C91.2588 185.11 91.1661 186.687 91.9081 188.449C93.9487 192.901 97.1023 196.426 100.812 199.487C102.853 201.156 105.079 201.713 107.676 201.249C108.511 201.156 109.531 201.62 110.366 202.084C111.479 202.733 112.314 204.031 113.427 204.31C115.096 204.773 116.209 205.516 117.23 206.721C118.621 208.391 120.383 209.504 122.609 209.133C124.279 208.855 125.021 209.318 125.485 210.988C126.505 214.513 128.638 215.533 132.256 214.698C133.276 214.42 134.667 214.698 135.688 215.162C138.006 216.182 140.14 217.573 142.366 218.594C143.85 219.243 144.592 220.171 144.777 221.655C145.056 223.788 145.241 225.828 145.241 227.962C145.148 230.837 145.519 233.805 143.015 236.124C142.644 236.402 142.459 237.145 142.459 237.609C142.737 240.021 143.201 242.339 145.148 244.008C148.395 246.791 152.198 248.46 156.464 248.831C158.319 249.017 160.267 248.831 162.215 248.924C164.719 249.018 165.554 250.223 164.905 252.541C164.719 253.098 164.534 253.747 164.256 254.304C161.844 259.22 163.328 262.466 168.429 264.043C169.45 264.413 170.934 265.527 170.934 266.268C171.119 270.164 172.789 274.337 169.728 277.956C169.357 278.326 168.986 278.79 168.893 279.347C168.708 280.367 168.337 281.666 168.708 282.5C169.171 283.521 169.171 284.076 168.522 284.912C167.131 286.767 166.203 288.622 166.018 291.034C165.74 295.95 165.09 300.866 164.719 305.782C164.534 308.193 164.441 310.698 164.534 313.108C164.627 315.149 165.74 316.912 167.78 317.376C170.563 317.932 173.438 318.303 176.221 318.303C183.734 318.303 189.299 324.981 188 332.401C187.629 334.35 187.722 336.482 187.815 338.523C187.908 341.121 188.742 341.676 191.339 341.212C192.545 341.028 193.751 340.656 194.957 340.564C197.925 340.379 200.058 342.234 199.687 345.202C199.316 348.541 198.667 351.973 197.554 355.125C196.348 358.651 196.07 358.557 199.131 360.691C202.192 362.825 203.397 365.793 202.934 369.409C202.655 371.822 202.006 374.141 201.913 376.551C201.821 380.261 199.316 382.209 196.534 383.137C189.021 385.456 183.27 390.187 177.705 395.288C174.273 398.441 171.305 401.967 168.151 405.398C166.389 407.253 166.296 408.459 167.687 410.684C168.058 411.334 168.429 411.983 168.893 412.54C171.119 415.416 173.995 417.826 173.067 422.186C172.696 423.947 173.995 424.783 175.757 424.226C176.499 424.041 177.148 423.669 177.797 423.205C179.282 422.185 180.487 422.741 181.415 423.854C185.032 428.399 189.113 432.295 193.658 435.727C195.699 437.212 197.276 439.159 197.647 441.663C197.925 443.796 199.223 443.982 200.893 443.796C202.47 443.611 203.954 443.147 205.623 442.776C206.644 444.909 208.221 445.188 209.705 443.333C210.354 442.498 211.096 441.57 211.281 440.55C212.302 436.376 214.249 432.944 217.403 429.976C220.463 427.101 223.154 423.854 226.122 420.608C226.307 420.794 226.678 420.979 226.956 421.257C229.275 423.669 231.964 423.483 233.728 420.7C234.748 419.03 235.767 417.361 236.603 415.506C238.087 412.352 240.22 410.033 243.003 407.993C244.951 406.508 246.619 404.653 248.011 402.706C250.237 399.46 250.979 395.471 251.443 391.668C251.906 388.329 252.092 384.897 252.463 381.559C252.556 380.261 252.834 378.961 253.02 377.755C253.67 373.581 257.194 370.335 256.637 365.697C257.564 366.161 258.214 366.625 258.956 366.996C260.254 367.552 261.274 367.366 261.924 365.883C263.315 362.544 266.283 360.967 269.438 360.039C271.942 359.205 274.075 358.091 276.116 356.422C278.435 354.474 280.846 352.619 284.278 352.805C289.286 352.99 293.923 351.784 297.449 347.889C300.51 344.55 303.756 343.993 307.652 346.219C310.155 347.611 312.938 347.796 315.814 347.425C321.379 346.591 326.202 344.179 330.747 341.026C334.272 338.522 337.426 335.645 339.281 331.565C340.486 328.875 342.342 326.742 345.217 325.629C346.144 325.259 347.072 324.887 347.72 324.238C351.338 319.878 354.956 315.426 358.481 310.882C360.242 308.563 359.408 305.781 359.594 303.183C359.686 300.771 359.964 298.175 362.097 296.784C365.807 294.279 367.662 290.661 369.147 286.766C369.796 285.189 369.796 283.334 370.075 281.665C369.981 281.386 370.631 281.201 370.724 280.922C371.094 279.81 371.372 278.603 371.558 277.397C372.207 274.058 372.856 270.812 373.413 267.473C374.062 263.484 374.619 259.496 375.175 255.509C375.732 251.798 375.917 248.088 376.659 244.378C377.123 241.781 378.608 239.462 381.297 238.627C390.016 235.659 396.045 230.001 398.642 221.19C399.94 216.923 402.445 214.883 406.618 214.141C411.35 213.306 415.709 211.636 418.492 207.37C419.234 206.164 419.698 204.773 420.625 203.752C423.037 201.155 425.633 198.744 428.138 196.239C434.074 190.396 436.3 183.532 434.261 175.37C433.518 172.587 433.148 169.805 432.684 166.929C432.313 164.61 432.498 162.106 431.849 159.88C430.365 154.964 427.583 151.068 421.925 150.141C420.349 149.863 418.864 149.399 417.287 149.213C413.856 148.657 410.98 147.173 408.846 144.576C405.136 139.845 401.519 134.929 398.087 130.014C395.861 126.86 394.191 123.428 389.646 123.057C389.089 123.057 388.44 122.222 388.069 121.573C386.214 118.327 383.431 116.657 379.815 116.286C377.866 116.101 375.734 115.915 373.971 116.472C368.87 118.141 364.232 116.657 359.687 114.895C357.832 114.246 355.977 113.04 354.679 111.648C353.009 109.886 350.968 109.051 348.743 108.773C344.476 108.124 340.488 109.33 336.592 110.814C334.644 111.556 332.603 112.298 330.378 113.04C331.398 109.051 332.326 105.434 333.345 101.817C333.809 100.054 333.625 99.1267 331.77 98.3847C328.987 97.1789 326.389 95.6021 323.792 94.0253C322.494 93.1906 321.473 91.9848 320.082 91.15C315.166 88.1819 309.786 86.5123 304.128 85.3993C297.821 84.1935 291.886 85.121 286.691 89.2022C284.093 91.2427 281.496 93.1906 278.992 95.0456C278.157 93.0978 276.951 91.4282 275.467 90.1297C276.395 90.0369 277.415 89.7587 278.343 89.3877C280.198 88.6457 282.053 87.8109 283.63 86.6978C286.412 84.5645 289.195 82.3384 291.699 79.8341C293.183 78.3501 292.812 77.1443 290.864 76.2167C285.485 73.6196 279.734 72.5994 273.799 72.5994C271.016 72.5994 268.696 73.7124 266.563 75.0109C264.338 76.4022 262.389 78.0718 260.07 79.3703C258.215 80.3906 256.268 81.4109 253.485 80.7616C254.319 78.9993 254.783 77.237 255.804 75.8457C259.978 70.095 265.172 65.5501 271.386 62.1183C273.149 61.1907 274.633 59.9849 274.263 57.6661C273.984 55.9966 274.633 54.8835 275.932 53.956C276.952 53.214 277.88 52.3792 279.178 51.2661C277.973 50.6169 277.23 50.0604 276.302 49.7821C274.541 49.1328 272.499 48.8546 270.831 48.0198C269.718 47.4633 268.605 46.3502 268.326 45.2372C267.769 43.1039 267.955 40.785 267.399 38.559C266.286 33.4575 264.895 28.3561 263.689 23.7185C261.37 22.1417 259.885 23.0692 258.587 24.5532C257.289 25.9445 255.805 27.1503 254.599 28.6344C254.041 29.3764 253.578 30.4894 253.764 31.417C254.135 34.1996 254.135 34.6633 251.538 35.3126C249.219 35.9619 247.828 37.3532 247.086 39.3937C246.529 40.8778 245.416 41.6198 243.933 41.9908C239.759 43.0111 235.678 42.7329 231.504 42.1763C228.352 41.7126 225.475 40.9705 223.62 38.0952C223.25 37.4459 222.323 36.9822 221.673 36.8894C218.983 36.4256 216.293 36.1474 213.603 35.6836C211.655 35.3126 210.542 35.9619 209.429 37.6314C207.481 40.785 202.844 44.3097 197.742 42.2691C194.496 40.9705 191.064 41.4343 187.725 42.5473C184.571 43.5676 181.325 44.3097 178.079 44.8662C175.76 45.3299 173.441 44.9589 171.586 43.1966C167.597 39.4865 165.279 34.8488 164.629 29.3764C164.073 24.8315 165.835 20.9359 168.154 17.3185C170.658 13.5156 170.566 13.0519 167.134 10.362C165.464 9.06347 164.815 7.57942 165.279 5.53886C165.464 4.70408 166.021 3.8693 165.835 3.22003C165.65 2.19974 165.186 0.901199 164.444 0.530186C162.311 -0.582851 160.641 0.0664207 158.971 2.38525C156.653 5.4461 154.612 8.87797 150.438 9.52724C147.47 9.991 144.409 10.2693 141.348 10.5475C140.606 10.6403 139.864 10.362 139.122 10.4548C136.803 10.5475 135.598 12.1243 134.485 13.8866C132.537 17.133 131.702 17.2257 128.919 14.6287C128.641 14.4432 128.456 14.0721 128.177 13.9794C125.673 12.6808 123.261 11.3823 120.757 10.362C120.108 10.0838 118.717 10.733 118.253 11.3823C116.583 13.7011 116.583 16.391 117.232 19.0808C118.16 22.6054 119.83 25.2953 123.447 26.9648C126.601 28.4489 126.415 32.2518 123.447 33.9213C122.519 34.4778 121.406 34.7561 120.479 35.3126C114.172 38.93 107.864 42.5473 101.557 46.2575C100.259 47.0923 99.0529 47.0923 97.7543 46.5357C95.3427 45.4227 93.0239 45.3299 90.7978 46.9995C90.5196 47.2778 89.6848 47.2778 89.3138 46.9995C86.4384 45.0517 84.1196 42.7329 83.4703 39.0227C82.9138 35.7764 81.337 33.3648 77.8124 32.53C75.4008 31.9735 73.2675 32.53 71.0414 33.272C67.8878 34.2923 64.827 34.3851 61.4878 33.9213C59.169 33.5503 56.7574 33.643 54.4386 33.9213C52.8618 34.1068 51.8415 35.4054 51.656 37.0749C51.4705 38.8372 52.5835 39.8575 54.0676 40.5068C55.0879 40.9705 56.2009 41.2488 56.9429 41.9908C57.685 42.6401 58.3342 43.7531 58.3342 44.5879C58.3342 45.2372 57.3139 46.1647 56.5719 46.443C55.4589 46.814 54.1603 46.9067 52.9545 46.9067C48.5951 47.0923 46.5546 49.7821 48.3169 53.7705C49.4299 56.2748 51.0067 58.6864 52.769 60.8197C56.0154 64.9936 56.3864 68.8892 53.4183 73.1559C51.7488 75.5675 50.172 78.0718 51.0995 81.3182C51.285 81.9674 51.0067 82.8022 50.6357 83.4515C49.3372 86.2341 48.4096 89.1094 48.5024 92.3558C48.5024 93.0978 48.2241 93.9326 47.9459 94.6746C47.4821 96.3442 46.6473 98.0137 46.5546 99.6833C46.2763 103.764 44.514 105.248 40.7111 104.043C37.0938 102.837 33.9402 103.393 30.6938 105.156C29.5808 105.712 28.1895 105.805 26.8909 105.898C25.4069 105.898 23.9228 105.619 22.346 105.434C21.975 107.475 20.5837 108.309 18.7286 108.588C18.2649 108.68 17.8939 108.959 17.5229 109.237C11.5866 113.318 9.45333 119.625 7.87652 126.211C7.41276 127.973 7.32001 129.643 5.18668 130.663C3.79539 131.312 2.5896 132.796 1.66207 134.187C-0.656763 137.619 -0.56401 140.124 2.03308 143.37C3.69985 144.206 4.62738 145.874 4.44188 148.009Z" fill="#003153" fill-opacity="0.2"/>
<line x1="160.826" y1="209.524" x2="235.618" y2="259.879" stroke="black" stroke-width="2" stroke-dasharray="4 4"/>
<line y1="-1" x2="90.1641" y2="-1" transform="matrix(-0.829515 0.558485 0.558485 0.829515 370.575 210.354)" stroke="black" stroke-width="2" stroke-dasharray="4 4"/>
<circle cx="135.83" cy="185.176" r="37.0259" fill="#003153"/>
<path d="M138.916 183.127H136.448V184.482H138.916V183.127Z" fill="white"/>
<path d="M117.847 181.102L122.039 180.445C122.803 179.929 123.596 179.468 124.414 179.063C127.115 177.72 130.046 177.027 133.011 177.03H133.74C137.239 177.033 140.682 177.997 143.756 179.834L145.871 181.101C148.348 181.132 150.776 181.855 152.928 183.201C153.802 183.752 154.342 184.773 154.343 185.879V189.902C154.343 190.276 154.067 190.58 153.726 190.58H151.654C150.98 192.69 148.875 193.802 146.952 193.062C145.894 192.655 145.062 191.741 144.691 190.58H128.204C127.53 192.69 125.425 193.802 123.503 193.062C122.445 192.655 121.612 191.741 121.241 190.58H121.02C120.941 190.58 120.864 190.563 120.791 190.531L118.792 189.651C117.899 189.263 117.314 188.314 117.317 187.26V181.773C117.317 181.436 117.543 181.15 117.847 181.102ZM145.754 189.767C146.027 191.233 147.331 192.179 148.666 191.879C150.002 191.58 150.864 190.148 150.591 188.681C150.318 187.215 149.014 186.269 147.678 186.569C146.529 186.827 145.704 187.937 145.704 189.225C145.704 189.407 145.721 189.588 145.754 189.767ZM134.596 189.225H144.47C144.47 186.98 146.127 185.16 148.172 185.16C150.217 185.16 151.875 186.98 151.875 189.225H153.109V185.879C153.108 185.259 152.806 184.686 152.315 184.378C150.301 183.115 148.023 182.451 145.704 182.45H134.596V189.225ZM134.596 181.095H143.284L143.165 181.024C140.526 179.45 137.596 178.557 134.596 178.415V181.095ZM133.362 178.385H133.013C130.526 178.382 128.062 178.9 125.752 179.912L126.829 181.095H133.362V178.385ZM122.304 189.767C122.577 191.233 123.881 192.179 125.217 191.879C126.552 191.58 127.414 190.148 127.141 188.681C126.868 187.215 125.564 186.269 124.228 186.569C123.079 186.827 122.254 187.937 122.254 189.225C122.254 189.407 122.271 189.588 122.304 189.767ZM118.551 183.127H120.403V184.483H118.551V187.26C118.55 187.759 118.827 188.209 119.25 188.392L121.02 189.172C121.02 189.11 121.027 189.048 121.031 188.986C121.035 188.924 121.036 188.851 121.042 188.783C121.048 188.715 121.061 188.647 121.07 188.58C121.081 188.512 121.088 188.444 121.1 188.383C121.112 188.321 121.131 188.253 121.147 188.188C121.163 188.124 121.175 188.059 121.194 187.996C121.212 187.933 121.234 187.872 121.255 187.811C121.276 187.749 121.295 187.686 121.317 187.624C121.338 187.563 121.368 187.508 121.393 187.45C121.419 187.393 121.445 187.33 121.474 187.271C121.503 187.213 121.535 187.164 121.563 187.11C121.591 187.055 121.625 186.994 121.66 186.938C121.695 186.883 121.728 186.839 121.762 186.789C121.796 186.738 121.834 186.679 121.874 186.627C121.913 186.575 121.95 186.534 121.988 186.492C122.026 186.449 122.069 186.392 122.112 186.344C122.154 186.297 122.196 186.259 122.239 186.217C122.281 186.175 122.327 186.126 122.374 186.082C122.421 186.038 122.468 186.004 122.515 185.965C122.562 185.927 122.609 185.885 122.658 185.849C122.708 185.813 122.763 185.782 122.816 185.744C122.869 185.706 122.913 185.676 122.963 185.647C123.012 185.618 123.075 185.587 123.132 185.557C123.188 185.528 123.233 185.501 123.285 185.477C123.338 185.452 123.409 185.427 123.47 185.402C123.532 185.378 123.572 185.359 123.625 185.341C123.695 185.317 123.767 185.3 123.839 185.28C123.886 185.268 123.931 185.252 123.978 185.241C124.054 185.224 124.132 185.215 124.209 185.202C124.255 185.196 124.298 185.185 124.344 185.18C124.468 185.167 124.591 185.159 124.72 185.159C126.765 185.161 128.421 186.98 128.423 189.224H133.362V182.45H126.574C126.41 182.45 126.253 182.378 126.138 182.251L124.537 180.495C123.866 180.845 123.213 181.238 122.581 181.669C122.508 181.719 122.427 181.752 122.342 181.766L118.551 182.36V183.127Z" fill="white"/>
<circle cx="266.902" cy="274.779" r="37.0259" fill="#003153"/>
<path d="M285.369 274.087C285.295 273.677 285.127 273.288 284.883 272.964C280.878 267.653 281.81 268.889 280.3 266.887C279.861 266.303 279.213 265.969 278.523 265.969H277.403C277.103 265.969 276.86 266.236 276.86 266.564C276.86 266.893 277.103 267.16 277.403 267.16H278.523C278.888 267.16 279.231 267.337 279.464 267.646L279.897 268.219H277.274C276.502 268.219 275.875 268.939 275.875 269.825V273.192C275.875 274.077 276.502 274.798 277.274 274.798H284.328V283.629C284.328 284.09 283.987 284.464 283.567 284.464H283.175C282.982 283.12 282.216 281.967 281.149 281.342C278.774 279.952 275.849 281.558 275.434 284.464C274.734 284.464 274.64 284.464 273.809 284.464V277.708V277.703V267.484C273.809 267.305 273.941 267.16 274.104 267.16H275.233C275.533 267.16 275.776 266.893 275.776 266.564C275.776 266.236 275.533 265.969 275.233 265.969H274.104C274.003 265.969 273.904 265.981 273.809 266.004V262.098C273.809 261.332 273.241 260.709 272.543 260.709H254.864C254.564 260.709 254.322 260.975 254.322 261.304C254.322 261.633 254.564 261.9 254.864 261.9H272.543C272.643 261.9 272.724 261.988 272.724 262.098V277.108H249.474V262.098C249.474 261.989 249.555 261.9 249.655 261.9H252.695C252.994 261.9 253.237 261.633 253.237 261.304C253.237 260.975 252.994 260.709 252.695 260.709H249.655C248.957 260.709 248.389 261.332 248.389 262.098V282.696C248.389 284.328 249.598 285.655 251.085 285.655H253.811C254.051 287.836 255.739 289.439 257.694 289.439C259.692 289.439 261.355 287.803 261.592 285.655H265.821C266.121 285.655 266.363 285.389 266.363 285.06C266.363 284.731 266.121 284.464 265.821 284.464H261.571C260.883 279.673 254.52 279.634 253.83 284.464H251.085C250.197 284.464 249.474 283.671 249.474 282.696V282.645H250.822C251.22 282.645 251.595 282.474 251.877 282.165C252.811 281.137 252.147 279.369 250.822 279.369H249.474V278.303H272.724V284.464H267.99C267.69 284.464 267.447 284.731 267.447 285.06C267.447 285.389 267.69 285.655 267.99 285.655H275.416C275.568 287.041 276.323 288.268 277.461 288.934C278.047 289.277 278.677 289.439 279.299 289.439C281.301 289.439 282.96 287.799 283.196 285.655H283.567C284.585 285.655 285.413 284.746 285.413 283.629C285.413 273.765 285.431 274.433 285.369 274.087ZM277.274 273.607C277.1 273.607 276.959 273.421 276.959 273.191V269.825C276.959 269.595 277.1 269.41 277.274 269.41H280.794L283.959 273.607H277.274V273.607ZM260.467 284.464C260.544 284.835 260.536 285.138 260.536 285.138C260.536 286.486 259.739 287.709 258.527 288.114C256.705 288.721 254.867 287.226 254.867 285.137C254.855 281.357 259.812 280.935 260.467 284.464ZM250.822 280.56C251.183 280.56 251.365 281.043 251.11 281.323C250.954 281.494 250.93 281.454 249.474 281.454V280.56H250.822ZM282.141 285.138C282.141 286.449 281.374 287.699 280.131 288.114C277.708 288.922 275.626 286.098 276.805 283.674C278.176 280.847 282.141 281.888 282.141 285.137V285.138Z" fill="white"/>
<path d="M257.701 287.525C259.169 287.525 260.193 285.964 259.787 284.464C259.176 282.186 256.226 282.187 255.615 284.464C255.206 285.976 256.243 287.525 257.701 287.525ZM256.8 284.464C257.233 283.767 258.168 283.767 258.602 284.464C259.098 285.264 258.567 286.335 257.701 286.335C256.83 286.335 256.307 285.258 256.8 284.464Z" fill="white"/>
<path d="M277.22 284.464C276.814 285.965 277.838 287.525 279.306 287.525C280.51 287.525 281.481 286.448 281.481 285.138C281.481 282.369 277.919 281.856 277.22 284.464ZM280.288 285.655C280.112 286.057 279.739 286.335 279.306 286.335C278.435 286.335 277.912 285.258 278.405 284.464C278.602 284.148 278.932 283.941 279.306 283.941C280.112 283.941 280.635 284.873 280.288 285.655Z" fill="white"/>
<path d="M278.276 276.982C278.575 276.982 278.818 276.715 278.818 276.386C278.818 276.058 278.575 275.791 278.276 275.791H276.478C276.179 275.791 275.936 276.058 275.936 276.386C275.936 276.715 276.179 276.982 276.478 276.982H278.276Z" fill="white"/>
<circle cx="397.974" cy="185.176" r="37.0259" fill="#003153"/>
<path d="M381.476 195.504H380.473C379.914 195.504 379.461 195.006 379.461 194.393V192.208C379.461 191.594 379.914 191.097 380.473 191.097H385.525H393.626H399.91V195.504H397.675" stroke="white" stroke-width="1.5" stroke-miterlimit="10" stroke-linecap="round" stroke-linejoin="round"/>
<path d="M389.577 195.504H389.575" stroke="white" stroke-width="1.5" stroke-miterlimit="10" stroke-linecap="round" stroke-linejoin="round"/>
<path d="M399.91 195.503V169.625H405.773C406.798 169.625 407.812 169.755 408.798 170.008" stroke="white" stroke-width="1.5" stroke-miterlimit="10" stroke-linecap="round" stroke-linejoin="round"/>
<path d="M410.923 170.763C411.856 171.192 412.748 171.74 413.578 172.399L414.353 181.094L415.18 182C415.623 182.488 415.872 183.149 415.872 183.838V193.024" stroke="white" stroke-width="1.5" stroke-miterlimit="10" stroke-linecap="round" stroke-linejoin="round"/>
<path d="M402.93 174.628H405.016C405.25 174.628 405.439 174.836 405.439 175.092V180.629C405.439 180.886 405.25 181.094 405.016 181.094C404.845 181.094 404.691 180.98 404.625 180.807L402.538 175.27C402.423 174.964 402.628 174.628 402.93 174.628Z" stroke="white" stroke-width="1.5" stroke-miterlimit="10" stroke-linecap="round" stroke-linejoin="round"/>
<path d="M411.641 181.094H407.535C407.302 181.094 407.112 180.886 407.112 180.629V175.092C407.112 174.836 407.302 174.628 407.535 174.628H411.147C411.365 174.628 411.547 174.809 411.568 175.047L412.062 180.584C412.087 180.857 411.891 181.094 411.641 181.094Z" stroke="white" stroke-width="1.5" stroke-miterlimit="10" stroke-linecap="round" stroke-linejoin="round"/>
<path d="M412.99 193.024H413.915H415.872C416.212 193.024 416.487 193.326 416.487 193.698V196.81C416.487 197.182 416.212 197.484 415.872 197.484H413.298" stroke="white" stroke-width="1.5" stroke-miterlimit="10" stroke-linecap="round" stroke-linejoin="round"/>
<path d="M389.576 195.544C389.576 193.088 387.762 191.097 385.525 191.097C383.289 191.097 381.475 193.088 381.475 195.544C381.475 197.999 383.289 199.99 385.525 199.99C387.762 199.99 389.576 197.999 389.576 195.544Z" stroke="white" stroke-width="1.5" stroke-miterlimit="10" stroke-linecap="round" stroke-linejoin="round"/>
<path d="M387.436 195.544C387.436 194.385 386.581 193.446 385.526 193.446C384.47 193.446 383.615 194.385 383.615 195.544C383.615 196.702 384.47 197.641 385.526 197.641C386.581 197.641 387.436 196.702 387.436 195.544Z" stroke="white" stroke-width="1.5" stroke-miterlimit="10" stroke-linecap="round" stroke-linejoin="round"/>
<path d="M397.676 195.544C397.676 193.088 395.863 191.097 393.626 191.097C391.389 191.097 389.576 193.088 389.576 195.544C389.576 197.999 391.389 199.99 393.626 199.99C395.863 199.99 397.676 197.999 397.676 195.544Z" stroke="white" stroke-width="1.5" stroke-miterlimit="10" stroke-linecap="round" stroke-linejoin="round"/>
<path d="M395.537 195.544C395.537 194.385 394.681 193.446 393.626 193.446C392.571 193.446 391.715 194.385 391.715 195.544C391.715 196.702 392.571 197.641 393.626 197.641C394.681 197.641 395.537 196.702 395.537 195.544Z" stroke="white" stroke-width="1.5" stroke-miterlimit="10" stroke-linecap="round" stroke-linejoin="round"/>
<path d="M413.703 195.544C413.703 193.088 411.889 191.097 409.652 191.097C407.416 191.097 405.602 193.088 405.602 195.544C405.602 197.999 407.416 199.99 409.652 199.99C411.889 199.99 413.703 197.999 413.703 195.544Z" stroke="white" stroke-width="1.5" stroke-miterlimit="10" stroke-linecap="round" stroke-linejoin="round"/>
<path d="M411.563 195.544C411.563 194.385 410.708 193.446 409.653 193.446C408.597 193.446 407.742 194.385 407.742 195.544C407.742 196.702 408.597 197.641 409.653 197.641C410.708 197.641 411.563 196.702 411.563 195.544Z" stroke="white" stroke-width="1.5" stroke-miterlimit="10" stroke-linecap="round" stroke-linejoin="round"/>
<path d="M413.915 193.024V188.242C413.915 187.054 414.791 186.092 415.872 186.092" stroke="white" stroke-width="1.5" stroke-miterlimit="10" stroke-linecap="round" stroke-linejoin="round"/>
<path d="M388.715 187.915H392.786L394.254 191.098H382.957L384.426 187.915H386.48" stroke="white" stroke-width="1.5" stroke-miterlimit="10" stroke-linecap="round" stroke-linejoin="round"/>
<path d="M398.639 195.504H405.602" stroke="white" stroke-width="1.5" stroke-miterlimit="10" stroke-linecap="round" stroke-linejoin="round"/>
<path d="M407.335 183.431H408.97" stroke="white" stroke-width="1.5" stroke-miterlimit="10" stroke-linecap="round" stroke-linejoin="round"/>
</svg>
