<svg width="25" height="24" viewBox="0 0 25 24" fill="none" xmlns="http://www.w3.org/2000/svg">
<path d="M0 23.7011L2.15 17.5866C1.05905 15.8471 0.431034 13.8169 0.431034 11.6462C0.431034 5.21425 5.93103 0 12.7155 0C19.5 0 25 5.21425 25 11.6462C25 18.0782 19.5 23.2925 12.7155 23.2925C10.6513 23.2925 8.70733 22.8074 7 21.955L0 23.7011Z" fill="white"/>
<path d="M20.5529 15.5221C19.9857 14.5058 17.8939 13.3436 17.8939 13.3436C17.4206 13.0878 16.8495 13.0592 16.5796 13.5153C16.5796 13.5153 15.8999 14.288 15.727 14.3992C14.9374 14.9063 14.2059 14.8867 13.4676 14.1867L11.7516 12.5599L10.0357 10.9331C9.2973 10.2331 9.27661 9.53961 9.81152 8.79098C9.92877 8.62712 10.7439 7.98269 10.7439 7.98269C11.2249 7.72648 11.1947 7.18544 10.9249 6.73675C10.9249 6.73675 9.69902 4.75362 8.62704 4.21585C8.17101 3.98701 7.61109 4.0671 7.24644 4.41281L6.48868 5.1312C4.0848 7.41019 5.26842 9.98299 7.6723 12.262L9.86928 14.3448L12.0663 16.4276C14.4701 18.7066 17.1839 19.8288 19.5878 17.5498L20.3456 16.8314C20.7102 16.4849 20.7943 15.954 20.5529 15.5221Z" fill="#003153"/>
</svg>
